<?xml version="1.0" encoding="utf-8"?>
<!-- Generator: Adobe Illustrator 25.3.1, SVG Export Plug-In . SVG Version: 6.00 Build 0)  -->
<svg version="1.1" id="图层_1" xmlns="http://www.w3.org/2000/svg" xmlns:xlink="http://www.w3.org/1999/xlink" x="0px" y="0px"
	 viewBox="0 0 72 72" style="enable-background:new 0 0 72 72;" xml:space="preserve">
<style type="text/css">
	.st0{fill:#FFFFFF;}
	.st1{fill:#F7CE5C;}
	.st2{fill:none;stroke:#202125;stroke-width:2;stroke-linecap:round;stroke-linejoin:round;}
</style>
<g>
	<path class="st0" d="M7.8,66.3l59-0.6c2.4,0,4.2-1.5,4.2-3.9v-56c0-2.4-1.9-4.2-4.2-4.2H10.5C9.3,1.6,8.2,2,7.4,2.9L4.7,5.7
		C4,6.6,3.5,7.5,3.5,8.6v53.3C3.5,64.5,5.4,66.3,7.8,66.3z"/>
	<path class="st1" d="M64.1,70.5H3.5C2.6,70.5,2,70,2,69.1V8.5C2,7.6,2.6,7,3.5,7h60.6c0.8,0,1.4,0.6,1.4,1.4v60.6
		C65.5,70,65,70.5,64.1,70.5z"/>
</g>
<g>
	<path class="st2" d="M2.3,7.8l6.8-6.3h60.6c0.8,0,1.4,0.6,1.4,1.4v60.6c0,0.8-0.6,1.4-1.4,1.4"/>
	<path class="st2" d="M64.1,70.5H3.5C2.6,70.5,2,70,2,69.1V8.5C2,7.6,2.6,7,3.5,7h60.6c0.8,0,1.4,0.6,1.4,1.4v60.6
		C65.5,70,65,70.5,64.1,70.5z"/>
</g>
</svg>
