<?xml version="1.0" encoding="utf-8"?>
<!-- Generator: Adobe Illustrator 25.3.1, SVG Export Plug-In . SVG Version: 6.00 Build 0)  -->
<svg version="1.1" id="图层_1" xmlns="http://www.w3.org/2000/svg" xmlns:xlink="http://www.w3.org/1999/xlink" x="0px" y="0px"
	 viewBox="0 0 72 72" style="enable-background:new 0 0 72 72;" xml:space="preserve">
<style type="text/css">
	.st0{fill:#FFFFFF;}
	.st1{fill:#F7CE5C;}
	.st2{fill:none;stroke:#202125;stroke-width:2;stroke-linecap:round;stroke-linejoin:round;}
</style>
<g>
	<path class="st0" d="M14.2,60.1l49.5-0.5c2,0,3.5-1.3,3.5-3.3v-47c0-2-1.6-3.5-3.5-3.5H16.5c-1,0-1.9,0.4-2.6,1.1l-2.3,2.4
		c-0.6,0.7-1,1.5-1,2.4v44.7C10.6,58.6,12.2,60.1,14.2,60.1z"/>
	<path class="st1" d="M61.5,63.7H10.6c-0.7,0-1.2-0.5-1.2-1.2V11.6c0-0.7,0.5-1.2,1.2-1.2h50.9c0.7,0,1.2,0.5,1.2,1.2v50.9
		C62.7,63.2,62.2,63.7,61.5,63.7z"/>
</g>
<g>
	<path class="st2" d="M9.6,11l5.7-5.3h50.9c0.7,0,1.2,0.5,1.2,1.2v50.9c0,0.7-0.5,1.2-1.2,1.2"/>
	<path class="st2" d="M61.5,63.7H10.6c-0.7,0-1.2-0.5-1.2-1.2V11.6c0-0.7,0.5-1.2,1.2-1.2h50.9c0.7,0,1.2,0.5,1.2,1.2v50.9
		C62.7,63.2,62.2,63.7,61.5,63.7z"/>
</g>
</svg>
