<?xml version="1.0" encoding="utf-8"?>
<!-- Generator: Adobe Illustrator 25.3.1, SVG Export Plug-In . SVG Version: 6.00 Build 0)  -->
<svg version="1.1" id="图层_1" xmlns="http://www.w3.org/2000/svg" xmlns:xlink="http://www.w3.org/1999/xlink" x="0px" y="0px"
	 viewBox="0 0 48 48" style="enable-background:new 0 0 48 48;" xml:space="preserve">
<style type="text/css">
	.st0{fill:#FCEA2B;}
	.st1{fill:#F1B31C;}
	.st2{fill:#FFFFFF;}
	.st3{fill:#EA5A47;}
	.st4{fill:none;stroke:#202125;stroke-width:2;stroke-linecap:round;stroke-linejoin:round;}
</style>
<g>
	<circle class="st0" cx="24" cy="24" r="22"/>
	<path class="st1" d="M39.58,8.42c8.59,8.63,8.55,22.58-0.08,31.17C35.39,43.68,29.81,45.99,24,46c-5.83-0.02-11.43-2.32-15.58-6.42
		"/>
	<polyline class="st2" points="21.43,21.43 13,35 26.57,26.57 	"/>
	<polyline class="st3" points="21.43,21.43 35,13 26.57,26.57 	"/>
</g>
<g>
	<circle class="st4" cx="24" cy="24" r="22"/>
	<polyline class="st4" points="21.43,21.43 13,35 26.57,26.57 	"/>
	<polyline class="st4" points="21.43,21.43 35,13 26.57,26.57 	"/>
	<line class="st4" x1="24" y1="10.25" x2="24" y2="5.67"/>
	<line class="st4" x1="24" y1="42.33" x2="24" y2="37.75"/>
	<line class="st4" x1="37.75" y1="24" x2="42.33" y2="24"/>
	<line class="st4" x1="5.67" y1="24" x2="10.25" y2="24"/>
</g>
</svg>
